<svg t="1707834057865" class="icon" viewBox="0 0 1024 1024" version="1.1" xmlns="http://www.w3.org/2000/svg" p-id="2396" width="200" height="200"><path d="M976.896 319.488c-8.192-16.384-28.672-47.104-45.056-75.776-14.336-22.528-32.768-53.248-34.816-59.392-6.144-16.384-28.672-32.768-59.392-53.248-4.096-4.096-10.24-6.144-14.336-10.24-14.336-12.288-32.768-24.576-53.248-20.48-36.864 4.096-75.776 43.008-73.728 88.064 2.048 20.48 12.288 38.912 28.672 53.248 20.48 16.384 47.104 24.576 69.632 20.48l16.384-4.096c8.192 16.384 20.48 32.768 20.48 57.344 0 36.864 2.048 61.44 4.096 79.872-14.336-4.096-34.816-6.144-51.2 0-12.288 4.096-24.576 10.24-32.768 20.48l-14.336-10.24c-22.528-16.384-45.056-30.72-65.536-30.72-18.432 0-30.72 2.048-40.96 6.144-12.288-10.24-24.576-22.528-32.768-36.864v-2.048c26.624-40.96 51.2-81.92 51.2-112.64 0-40.96-10.24-169.984-137.216-169.984s-137.216 131.072-137.216 169.984c0 30.72 24.576 71.68 51.2 112.64v2.048c-10.24 12.288-20.48 24.576-32.768 36.864-10.24-4.096-22.528-4.096-40.96-6.144-20.48-2.048-43.008 14.336-65.536 30.72l-14.336 10.24c-10.24-10.24-20.48-16.384-32.768-20.48-18.432-6.144-36.864-4.096-51.2 0 2.048-18.432 2.048-43.008 4.096-79.872 0-22.528 10.24-38.912 20.48-57.344 2.048 0 12.288 2.048 20.48 4.096 20.48 4.096 45.056-8.192 61.44-20.48 20.48-16.384 32.768-38.912 32.768-59.392 2.048-45.056-34.816-77.824-71.68-83.968-20.48-4.096-38.912 10.24-53.248 20.48-8.192 4.096-12.288 8.192-16.384 10.24-30.72 20.48-53.248 36.864-59.392 55.296-2.048 6.144-22.528 36.864-34.816 59.392-18.432 28.672-36.864 59.392-45.056 75.776-12.288 24.576-51.2 180.224-34.816 206.848 6.144 10.24 24.576 24.576 114.688 75.776l14.336 8.192c20.48 12.288 49.152 16.384 83.968 14.336 6.144 6.144 20.48 26.624 55.296 86.016l10.24 16.384c6.144 10.24 8.192 14.336 8.192 20.48 0 10.24 2.048 141.312 4.096 190.464 0 24.576 20.48 45.056 43.008 43.008L675.84 983.04c22.528 0 43.008-18.432 43.008-43.008 2.048-47.104 2.048-178.176 4.096-190.464 0-6.144 2.048-12.288 8.192-20.48l10.24-16.384c34.816-59.392 49.152-79.872 55.296-86.016 34.816 2.048 63.488-4.096 83.968-14.336l14.336-8.192c90.112-51.2 106.496-65.536 114.688-75.776 16.384-30.72-20.48-184.32-32.768-208.896z" fill="#bfbfbf" p-id="2397"></path></svg>
