<svg t="1707477451979" class="icon" viewBox="0 0 1024 1024" version="1.1" xmlns="http://www.w3.org/2000/svg" p-id="10000" width="200" height="200"><path d="M854.471111 176.355556v307.768888c0 32.426667-1.706667 65.422222 0.568889 97.848889 1.706667 22.186667-7.964444 35.271111-25.6 46.648889-65.422222 42.666667-134.257778 54.044444-203.662222 14.791111-91.591111-52.337778-182.613333-56.32-277.048889-12.515555-1.706667 0.568889-3.413333 0-7.964445-0.568889-0.568889-9.102222-1.706667-18.204444-1.706666-27.306667 0-134.257778 0.568889-267.946667-0.568889-402.204444-0.568889-28.444444 11.377778-40.391111 35.84-44.942222 84.195556-16.497778 166.115556-18.773333 245.191111 24.462222 62.008889 33.564444 128.568889 19.342222 193.991111 6.826666 13.084444-2.844444 25.031111-6.826667 40.96-10.808888zM204.231111 165.546667h92.728889v692.906666H204.231111zM339.057778 758.328889l154.737778 102.4v-205.368889z" p-id="10001" fill="#cdcdcd"></path><path d="M460.231111 731.022222h394.808889v54.044445H460.231111z" p-id="10002" fill="#cdcdcd"></path></svg>
